# xmcd CD database file
#
# Track frame offsets:
#	150
#	17695
#	37800
#	55282
#	72647
#	101192
#	115407
#	133862
#	152825
#	171000
#
# Disc length: 2559 seconds
#
# Revision: 3
# Processed by: cddbd v1.5PL3 Copyright (c) Steve Scherf et al.
# Submitted via: CDex 1.51
#
DISCID=8b09fd0a
DTITLE=Boz Scaggs - Down Two Then Left
DYEAR=1977
DGENRE=Rock
TTITLE0=Still Falling for You
TTITLE1=Hard Times
TTITLE2=A Clue
TTITLE3=Whatcha Gonna Tell Your Man
TTITLE4=We're Waiting
TTITLE5=Hollywood
TTITLE6=Then She Walked Away
TTITLE7=Gimme the Goods
TTITLE8=1993
TTITLE9=Tomorrow Never Came
EXTD=YEAR: 1977
EXTT0=
EXTT1=
EXTT2=
EXTT3=
EXTT4=
EXTT5=
EXTT6=
EXTT7=
EXTT8=
EXTT9=
PLAYORDER=
